<?xml version="1.0" standalone="no"?>
<!DOCTYPE svg PUBLIC "-//W3C//DTD SVG 20010904//EN"
 "http://www.w3.org/TR/2001/REC-SVG-20010904/DTD/svg10.dtd">
<svg version="1.0" xmlns="http://www.w3.org/2000/svg"
 width="728.000000pt" height="728.000000pt" viewBox="0 0 728.000000 728.000000"
 preserveAspectRatio="xMidYMid meet">
<metadata>
Created by potrace 1.11, written by Peter Selinger 2001-2013
</metadata>
<g transform="translate(0.000000,728.000000) scale(0.100000,-0.100000)"
fill="#000000" stroke="none">
<path d="M3527 6484 c-3 -4 -51 -8 -106 -10 -106 -3 -206 -10 -256 -18 -47 -7
-98 -16 -125 -21 -14 -3 -34 -7 -45 -9 -35 -7 -107 -27 -189 -52 -372 -116
-744 -350 -951 -600 -22 -26 -47 -55 -55 -63 -28 -29 -117 -175 -153 -251 -37
-79 -72 -181 -82 -240 -3 -19 -10 -51 -14 -71 -9 -38 -6 -268 3 -309 3 -14 8
-35 10 -47 3 -13 17 -67 31 -120 15 -54 29 -109 31 -123 3 -14 9 -36 13 -50 5
-14 12 -43 16 -65 11 -66 13 -79 19 -110 4 -16 8 -45 11 -62 3 -18 8 -50 11
-70 17 -116 35 -505 24 -543 0 -3 -3 -45 -5 -95 -5 -113 -18 -233 -30 -295 -3
-14 -7 -41 -10 -60 -2 -19 -7 -55 -11 -80 -3 -25 -7 -63 -9 -85 -3 -22 -8 -74
-12 -115 -10 -97 -10 -526 0 -610 15 -129 23 -186 33 -230 3 -14 8 -36 10 -50
3 -14 21 -77 40 -140 127 -408 374 -695 757 -878 49 -23 93 -42 98 -42 6 0 20
-5 32 -12 12 -7 27 -13 32 -15 6 -1 64 -18 130 -37 106 -31 236 -59 330 -71
17 -2 48 -7 70 -10 65 -9 172 -16 295 -20 63 -2 117 -5 120 -6 3 -1 10 0 15 1
6 1 82 3 170 5 154 4 267 10 324 19 14 3 53 8 86 12 33 3 69 9 80 11 28 6 54
11 95 18 19 3 46 10 60 15 14 5 41 12 60 16 75 14 270 85 350 127 91 48 204
115 225 134 11 10 38 31 59 47 50 37 152 140 188 188 15 20 34 42 41 50 51 52
205 352 194 379 -1 3 3 12 10 20 6 8 14 26 17 39 3 14 17 68 30 121 13 53 27
118 31 145 4 27 9 60 12 74 26 152 25 628 -2 820 -3 19 -7 55 -10 80 -8 72
-15 121 -25 180 -23 134 -31 270 -30 480 0 96 2 191 4 210 2 19 7 70 10 113 4
43 9 88 12 100 2 12 7 42 10 67 3 25 7 52 9 60 2 8 7 30 10 48 3 19 15 73 26
120 11 48 22 94 24 102 2 8 16 60 31 115 14 55 29 114 31 130 9 69 11 254 2
300 -5 28 -11 61 -13 75 -2 14 -6 32 -9 40 -3 8 -12 38 -20 65 -25 87 -133
297 -182 352 -5 6 -21 26 -34 45 -23 30 -231 240 -262 263 -8 6 -42 32 -75 57
-34 26 -73 53 -88 59 -14 7 -26 16 -26 21 0 4 -7 8 -15 8 -8 0 -15 4 -15 8 0
4 -12 13 -27 20 -16 6 -55 27 -88 47 -50 28 -134 67 -300 135 -29 12 -59 20
-66 17 -3 -1 -12 3 -20 9 -12 10 -30 16 -89 29 -8 2 -40 10 -70 19 -165 44
-307 58 -600 60 -107 1 -198 4 -201 9 -3 4 -8 4 -12 1z m418 -567 c111 -11
206 -25 260 -39 22 -5 47 -11 55 -13 21 -4 97 -34 150 -58 25 -11 48 -21 51
-21 17 -2 171 -111 215 -153 61 -57 145 -166 178 -231 84 -166 110 -372 66
-514 -45 -145 -146 -264 -294 -348 -20 -11 -36 -17 -36 -14 0 2 -9 0 -20 -6
-16 -9 -34 -5 -88 21 -37 17 -71 32 -77 34 -5 1 -23 7 -40 14 -16 7 -32 13
-35 13 -3 0 -16 5 -30 10 -33 13 -149 48 -175 53 -11 2 -30 6 -42 9 -51 13
-74 17 -178 31 -207 28 -455 20 -650 -21 -38 -8 -81 -17 -95 -20 -37 -7 -196
-58 -245 -78 -16 -7 -61 -26 -98 -41 -37 -16 -70 -32 -73 -36 -7 -11 -91 20
-154 57 -60 36 -130 97 -130 113 0 6 -4 11 -9 11 -21 0 -106 148 -117 204 -14
68 -17 97 -17 146 -1 256 132 505 351 663 29 20 56 37 61 37 5 0 11 4 13 9 5
14 176 90 251 112 85 24 93 26 143 33 95 14 112 16 168 21 32 2 61 6 63 8 5 5
515 -1 578 -6z"/>
</g>
</svg>
